<svg xmlns="http://www.w3.org/2000/svg" viewBox="0 0 512 512">
  <rect width="512" height="512" rx="108" fill="#2F6F62"/>
  <circle cx="256" cy="142" r="44" fill="#F4F6F1"/>
  <path fill="#F4F6F1" d="M132 350c46-22 83-51 111-88-39-12-74-36-104-72-11-13-9-32 4-43 13-10 32-9 43 4 27 32 56 49 88 51 31-2 61-19 88-51 11-13 30-14 43-4 13 11 15 30 4 43-30 36-65 60-104 72 28 37 65 66 111 88 15 7 22 25 15 40-7 16-25 23-41 15-48-23-87-52-116-88-29 36-68 65-116 88-16 8-34 1-41-15-7-15 0-33 15-40Z"/>
</svg>
